<svg width="116" height="28" viewBox="0 0 116 28" fill="none" xmlns="http://www.w3.org/2000/svg">
<path d="M1.79811 20V7.31H7.30611C8.69811 7.31 9.77211 7.646 10.5281 8.318C11.2841 8.978 11.6621 9.908 11.6621 11.108C11.6621 12.056 11.4161 12.842 10.9241 13.466C10.4321 14.078 9.72411 14.492 8.80011 14.708C9.41211 14.9 9.91611 15.362 10.3121 16.094L12.4361 20H9.89811L7.70211 15.95C7.48611 15.554 7.22811 15.284 6.92811 15.14C6.64011 14.996 6.26811 14.924 5.81211 14.924H4.10211V20H1.79811ZM4.10211 13.214H6.91011C8.59011 13.214 9.43011 12.53 9.43011 11.162C9.43011 9.806 8.59011 9.128 6.91011 9.128H4.10211V13.214ZM18.0314 20.18C17.0354 20.18 16.1774 19.994 15.4574 19.622C14.7374 19.25 14.1794 18.722 13.7834 18.038C13.3994 17.354 13.2074 16.544 13.2074 15.608C13.2074 14.696 13.3934 13.898 13.7654 13.214C14.1494 12.53 14.6714 11.996 15.3314 11.612C16.0034 11.216 16.7654 11.018 17.6174 11.018C18.8654 11.018 19.8494 11.414 20.5694 12.206C21.3014 12.998 21.6674 14.078 21.6674 15.446V16.112H15.3674C15.5354 17.684 16.4354 18.47 18.0674 18.47C18.5594 18.47 19.0514 18.398 19.5434 18.254C20.0354 18.098 20.4854 17.858 20.8934 17.534L21.5234 19.046C21.1034 19.394 20.5754 19.67 19.9394 19.874C19.3034 20.078 18.6674 20.18 18.0314 20.18ZM17.7074 12.548C17.0474 12.548 16.5134 12.752 16.1054 13.16C15.6974 13.568 15.4514 14.12 15.3674 14.816H19.7954C19.7474 14.084 19.5434 13.526 19.1834 13.142C18.8354 12.746 18.3434 12.548 17.7074 12.548ZM26.3473 20.18C25.7113 20.18 25.1413 20.06 24.6373 19.82C24.1453 19.568 23.7553 19.232 23.4673 18.812C23.1913 18.392 23.0533 17.918 23.0533 17.39C23.0533 16.742 23.2213 16.232 23.5573 15.86C23.8933 15.476 24.4393 15.2 25.1953 15.032C25.9513 14.864 26.9653 14.78 28.2373 14.78H28.8673V14.402C28.8673 13.802 28.7353 13.37 28.4713 13.106C28.2073 12.842 27.7633 12.71 27.1393 12.71C26.6473 12.71 26.1433 12.788 25.6273 12.944C25.1113 13.088 24.5893 13.316 24.0613 13.628L23.4133 12.098C23.7253 11.882 24.0913 11.696 24.5113 11.54C24.9433 11.372 25.3933 11.246 25.8613 11.162C26.3413 11.066 26.7913 11.018 27.2113 11.018C28.4953 11.018 29.4493 11.318 30.0733 11.918C30.6973 12.506 31.0093 13.424 31.0093 14.672V20H28.9033V18.596C28.6993 19.088 28.3753 19.478 27.9313 19.766C27.4873 20.042 26.9593 20.18 26.3473 20.18ZM26.8153 18.632C27.4033 18.632 27.8893 18.428 28.2733 18.02C28.6693 17.612 28.8673 17.096 28.8673 16.472V16.076H28.2553C27.1273 16.076 26.3413 16.166 25.8973 16.346C25.4653 16.514 25.2493 16.826 25.2493 17.282C25.2493 17.678 25.3873 18.002 25.6633 18.254C25.9393 18.506 26.3233 18.632 26.8153 18.632ZM36.677 20.18C35.909 20.18 35.231 19.994 34.643 19.622C34.067 19.25 33.617 18.722 33.293 18.038C32.969 17.342 32.807 16.526 32.807 15.59C32.807 14.642 32.969 13.832 33.293 13.16C33.617 12.476 34.067 11.948 34.643 11.576C35.231 11.204 35.909 11.018 36.677 11.018C37.301 11.018 37.865 11.156 38.369 11.432C38.873 11.708 39.251 12.074 39.503 12.53V7.31H41.753V20H39.557V18.542C39.317 19.046 38.939 19.448 38.423 19.748C37.907 20.036 37.325 20.18 36.677 20.18ZM37.307 18.47C37.979 18.47 38.519 18.23 38.927 17.75C39.335 17.258 39.539 16.538 39.539 15.59C39.539 14.63 39.335 13.916 38.927 13.448C38.519 12.968 37.979 12.728 37.307 12.728C36.635 12.728 36.095 12.968 35.687 13.448C35.279 13.916 35.075 14.63 35.075 15.59C35.075 16.538 35.279 17.258 35.687 17.75C36.095 18.23 36.635 18.47 37.307 18.47ZM48.9736 20V11.198H51.1696V12.548C51.4336 12.068 51.7996 11.696 52.2676 11.432C52.7356 11.156 53.2756 11.018 53.8876 11.018C55.2076 11.018 56.0716 11.594 56.4796 12.746C56.7556 12.206 57.1516 11.786 57.6676 11.486C58.1836 11.174 58.7716 11.018 59.4316 11.018C61.4116 11.018 62.4016 12.224 62.4016 14.636V20H60.1516V14.726C60.1516 14.054 60.0376 13.562 59.8096 13.25C59.5936 12.938 59.2216 12.782 58.6936 12.782C58.1056 12.782 57.6436 12.992 57.3076 13.412C56.9716 13.82 56.8036 14.39 56.8036 15.122V20H54.5536V14.726C54.5536 14.054 54.4396 13.562 54.2116 13.25C53.9956 12.938 53.6296 12.782 53.1136 12.782C52.5256 12.782 52.0636 12.992 51.7276 13.412C51.3916 13.82 51.2236 14.39 51.2236 15.122V20H48.9736ZM68.7367 20.18C67.8247 20.18 67.0327 19.994 66.3607 19.622C65.6887 19.25 65.1667 18.722 64.7947 18.038C64.4227 17.342 64.2367 16.526 64.2367 15.59C64.2367 14.654 64.4227 13.844 64.7947 13.16C65.1667 12.476 65.6887 11.948 66.3607 11.576C67.0327 11.204 67.8247 11.018 68.7367 11.018C69.6487 11.018 70.4407 11.204 71.1127 11.576C71.7847 11.948 72.3067 12.476 72.6787 13.16C73.0507 13.844 73.2367 14.654 73.2367 15.59C73.2367 16.526 73.0507 17.342 72.6787 18.038C72.3067 18.722 71.7847 19.25 71.1127 19.622C70.4407 19.994 69.6487 20.18 68.7367 20.18ZM68.7367 18.47C69.4087 18.47 69.9487 18.23 70.3567 17.75C70.7647 17.258 70.9687 16.538 70.9687 15.59C70.9687 14.63 70.7647 13.916 70.3567 13.448C69.9487 12.968 69.4087 12.728 68.7367 12.728C68.0647 12.728 67.5247 12.968 67.1167 13.448C66.7087 13.916 66.5047 14.63 66.5047 15.59C66.5047 16.538 66.7087 17.258 67.1167 17.75C67.5247 18.23 68.0647 18.47 68.7367 18.47ZM75.0938 20V11.198H77.2898V12.746C77.7218 11.702 78.6458 11.126 80.0618 11.018L80.7458 10.964L80.8898 12.872L79.5938 12.998C78.1178 13.142 77.3798 13.898 77.3798 15.266V20H75.0938ZM86.34 20.18C85.344 20.18 84.486 19.994 83.766 19.622C83.046 19.25 82.488 18.722 82.092 18.038C81.708 17.354 81.516 16.544 81.516 15.608C81.516 14.696 81.702 13.898 82.074 13.214C82.458 12.53 82.98 11.996 83.64 11.612C84.312 11.216 85.074 11.018 85.926 11.018C87.174 11.018 88.158 11.414 88.878 12.206C89.61 12.998 89.976 14.078 89.976 15.446V16.112H83.676C83.844 17.684 84.744 18.47 86.376 18.47C86.868 18.47 87.36 18.398 87.852 18.254C88.344 18.098 88.794 17.858 89.202 17.534L89.832 19.046C89.412 19.394 88.884 19.67 88.248 19.874C87.612 20.078 86.976 20.18 86.34 20.18ZM86.016 12.548C85.356 12.548 84.822 12.752 84.414 13.16C84.006 13.568 83.76 14.12 83.676 14.816H88.104C88.056 14.084 87.852 13.526 87.492 13.142C87.144 12.746 86.652 12.548 86.016 12.548Z" fill="#2B2B2B"/>
<path d="M106.938 8.09375C106.625 8.40625 106.656 8.875 106.938 9.1875L110.719 12.75H101.75C101.312 12.75 101 13.0938 101 13.5V14.5C101 14.9375 101.312 15.25 101.75 15.25H110.719L106.938 18.8438C106.656 19.1562 106.656 19.625 106.938 19.9375L107.625 20.625C107.938 20.9062 108.406 20.9062 108.688 20.625L114.781 14.5312C115.062 14.25 115.062 13.7812 114.781 13.4688L108.688 7.40625C108.406 7.125 107.938 7.125 107.625 7.40625L106.938 8.09375Z" fill="#2B2B2B"/>
</svg>
